<svg width="1280" height="1186" xmlns="http://www.w3.org/2000/svg" preserveAspectRatio="xMidYMid meet" version="1.0">
 <metadata>Created by potrace 1.15, written by Peter Selinger 2001-2017</metadata>

 <g>
  <title>Layer 1</title>
  <g id="svg_1" fill="#000000" transform="translate(0, 1186) scale(0.1, -0.1)">
   <path fill="#f74581" id="svg_2" d="m6784,11851c-67,-11 -137,-75 -277,-251c-78,-99 -119,-141 -174,-179c-32,-22 -67,-29 -351,-72l-73,-12l-85,-128c-46,-70 -113,-183 -149,-251l-64,-124l59,-62c77,-81 98,-83 247,-21c210,88 397,196 520,302c61,52 122,70 239,69c192,-2 398,-103 668,-328l119,-99l96,0c79,-1 106,-5 151,-25c127,-55 252,-158 318,-263c22,-34 98,-181 170,-327c99,-200 149,-289 204,-362c40,-54 76,-98 79,-98c3,0 4,37 1,83c-5,100 12,329 33,452c96,556 378,1070 747,1362c61,48 73,72 56,109c-26,56 -176,134 -330,171c-89,21 -316,24 -398,4c-149,-35 -269,-86 -391,-167c-74,-49 -101,-53 -232,-33c-111,16 -213,44 -457,124c-252,83 -353,110 -455,125c-77,11 -208,11 -271,1z"/>
   <path fill="#f74581" id="svg_3" d="m9655,11717c-74,-25 -102,-46 -156,-114c-29,-37 -137,-153 -239,-258c-102,-104 -206,-215 -231,-245c-73,-87 -145,-204 -219,-355c-159,-327 -220,-572 -206,-830c8,-167 30,-251 103,-406l45,-96l72,-13c178,-31 310,-112 491,-300c245,-255 382,-388 438,-425l58,-39l187,47c270,67 293,71 442,71c247,1 368,-51 555,-239c90,-90 168,-190 345,-445c259,-373 379,-500 596,-630c78,-47 259,-227 321,-320c97,-145 168,-314 208,-491c23,-102 32,-371 14,-452c-20,-96 -75,-167 -204,-265c-61,-45 -135,-103 -165,-128c-30,-25 -102,-76 -160,-114c-192,-124 -278,-242 -288,-395c-6,-107 1,-115 106,-115c86,0 175,20 271,60c336,141 394,174 502,286c109,114 183,247 230,414c22,77 24,103 23,285c-1,117 -10,298 -23,435c-11,129 -21,292 -21,363l0,129l-46,106c-145,332 -383,646 -739,972c-145,134 -171,170 -213,300c-42,129 -52,198 -93,645c-12,130 -40,288 -64,354c-31,88 -148,277 -425,686c-274,405 -389,640 -441,903c-18,90 -20,129 -16,247c3,77 12,168 20,203c7,35 11,65 7,67c-10,6 -183,45 -274,61c-247,45 -728,69 -811,41z"/>
   <path fill="#f74581" id="svg_4" d="m3100,11474c-425,-34 -708,-97 -1017,-226l-73,-30l0,-81c0,-45 -3,-132 -7,-193l-6,-112l69,-15c78,-18 157,-29 359,-52c283,-32 441,-80 545,-166c21,-17 22,-20 5,-15c-30,7 -221,43 -295,55c-190,31 -241,35 -425,35c-229,0 -343,-17 -410,-61c-106,-69 -155,-124 -155,-174c0,-30 53,-76 152,-132c77,-44 243,-165 236,-172c-2,-2 -41,5 -88,15c-130,27 -267,43 -316,35c-59,-8 -105,-49 -144,-127c-16,-34 -30,-66 -30,-72c0,-6 51,-31 113,-55c247,-97 407,-196 503,-310l28,-34l-24,5c-259,60 -273,62 -450,62c-201,1 -271,-13 -416,-85c-79,-38 -82,-42 -95,-86c-10,-37 -10,-63 -1,-128c16,-111 15,-132 -10,-195c-18,-46 -22,-75 -22,-175c0,-138 13,-191 95,-383c105,-244 114,-271 139,-432c33,-209 48,-337 59,-520c39,-623 35,-595 105,-702c182,-280 341,-685 461,-1173c9,-38 24,-83 32,-100c60,-119 196,-316 327,-473c132,-160 506,-363 881,-481c264,-82 536,-138 1000,-207c61,-8 166,-24 235,-34l125,-19l27,32c37,42 104,171 129,249c60,189 42,373 -54,548c-22,41 -92,160 -155,265c-222,370 -290,541 -300,744c-7,172 16,258 123,451c215,388 261,764 175,1460c-6,47 -17,141 -25,210c-27,226 -57,356 -121,525c-114,303 -174,525 -174,645c0,46 -3,61 -12,57c-7,-3 -99,-41 -203,-84c-278,-115 -404,-191 -488,-297c-96,-122 -126,-244 -134,-541c-9,-344 26,-552 197,-1180c139,-510 187,-741 197,-945c4,-89 1,-129 -12,-180c-15,-58 -73,-185 -81,-177c-2,1 -10,88 -19,192c-32,397 -104,733 -255,1185c-65,198 -237,648 -270,710c-6,10 -27,115 -47,232c-33,191 -37,232 -37,398c-1,164 2,194 22,263c39,134 90,222 186,319c212,214 476,368 789,458c106,30 109,31 304,28c172,-3 205,-1 251,15c29,11 59,29 66,40c8,12 26,65 41,117c14,52 44,132 65,176l40,82l72,30c154,63 283,95 455,113l122,12l-66,74c-200,224 -480,398 -978,611c-325,139 -293,130 -540,158c-122,14 -668,27 -775,18z"/>
   <path fill="#f74581" id="svg_5" d="m6442,10860c-206,-116 -304,-159 -552,-238c-495,-159 -607,-197 -718,-242c-108,-43 -134,-59 -213,-126c-49,-42 -89,-81 -89,-86c0,-18 50,-128 109,-236c98,-181 162,-345 149,-382c-1,-5 -46,27 -98,72c-52,44 -112,92 -134,105c-59,38 -143,63 -207,63c-57,0 -57,0 -108,-56c-68,-74 -127,-176 -164,-282c-29,-82 -31,-96 -31,-242c-1,-217 21,-310 179,-750c133,-374 150,-458 160,-790c5,-184 3,-261 -9,-355c-34,-269 -91,-483 -224,-845c-54,-146 -57,-160 -57,-245c0,-153 39,-235 227,-478c172,-222 200,-288 219,-510c17,-213 1,-315 -110,-706c-102,-356 -105,-373 -105,-566c0,-159 2,-175 26,-243c38,-106 83,-175 168,-261c187,-188 307,-273 427,-301c77,-18 243,-16 429,5c84,9 159,15 168,13c26,-5 -96,-82 -199,-127c-50,-21 -144,-58 -210,-81c-245,-85 -236,-81 -223,-97c21,-26 203,-142 269,-172c120,-54 253,-99 459,-155c425,-117 453,-128 904,-369c110,-59 201,-105 203,-104c1,2 -22,151 -52,332c-92,554 -125,842 -125,1101c0,232 -39,385 -162,634c-81,163 -448,715 -521,783c-29,27 -106,82 -171,124c-116,73 -125,77 -320,133c-111,31 -234,65 -273,75c-40,9 -73,21 -73,25c0,17 149,145 231,199c48,31 130,77 182,101c109,51 104,42 109,184l3,79l-115,39c-171,58 -430,132 -554,159l-109,23l44,18c106,45 292,82 500,98c79,6 173,14 209,18l65,7l13,50c33,129 45,234 44,405c0,275 -41,494 -192,1030c-77,273 -67,413 60,835c96,315 100,338 90,445c-38,384 -38,662 -2,800c31,117 59,183 111,262c58,90 86,114 256,227c265,175 484,267 664,277c133,8 220,34 260,79c37,42 39,60 9,76c-13,7 -89,54 -169,105c-208,133 -304,174 -414,174c-45,0 -68,-10 -243,-110z"/>
   <path fill="#f74581" id="svg_6" d="m7320,10494c-30,-7 -86,-21 -125,-32c-43,-13 -116,-22 -190,-26c-184,-8 -316,-52 -470,-156c-92,-62 -215,-177 -294,-275c-130,-160 -142,-189 -162,-380c-11,-99 -9,-137 16,-390c42,-425 30,-570 -65,-755c-56,-110 -64,-142 -63,-265c1,-121 14,-190 73,-400c22,-77 49,-183 60,-235c11,-52 29,-135 40,-185c65,-304 73,-622 30,-1200c-34,-454 -42,-661 -23,-608c2,6 90,141 194,300c295,447 392,616 482,843c83,207 139,497 124,638c-4,31 -13,120 -22,197c-24,231 -14,472 30,703c26,138 5,215 -139,497c-79,155 -88,176 -93,242c-8,96 12,148 82,216c199,197 628,333 936,298c145,-16 405,-82 496,-125c55,-27 97,-57 154,-113c44,-42 79,-72 79,-66c0,6 -9,57 -20,114c-55,278 -190,558 -395,821c-92,117 -275,314 -305,327c-76,33 -314,41 -430,15z"/>
   <path fill="#f74581" id="svg_7" d="m8591,9179c-137,-18 -284,-80 -381,-159l-35,-29l45,-37c25,-20 111,-103 191,-183c145,-145 279,-306 416,-497c40,-55 80,-107 90,-117c10,-9 97,-57 192,-107c196,-103 275,-153 334,-214c52,-54 95,-146 103,-221c5,-58 3,-63 -42,-142c-120,-210 -309,-369 -547,-462c-105,-40 -270,-81 -331,-81c-132,0 -553,-215 -831,-426c-95,-71 -167,-134 -130,-112c16,9 246,56 390,79c143,23 619,40 600,22c-12,-12 -145,-58 -430,-148c-193,-61 -218,-72 -310,-132c-247,-162 -461,-341 -581,-485c-119,-141 -154,-186 -154,-192c0,-4 233,110 518,254c284,143 526,260 537,260c12,0 72,11 135,25c643,137 1196,385 1618,725l99,79l6,58c9,80 46,221 116,441c96,301 121,408 121,525c0,100 -47,141 -233,204c-146,49 -225,99 -343,217c-71,72 -130,146 -205,255c-204,301 -309,429 -394,483c-144,90 -386,140 -564,117z"/>
   <path fill="#f74581" id="svg_8" d="m7670,8979c-30,-5 -76,-16 -101,-24l-45,-15l-94,-223c-108,-258 -159,-404 -197,-566c-24,-105 -27,-137 -29,-331c-1,-118 -6,-248 -11,-287c-5,-40 -6,-73 -2,-73c6,0 147,148 243,255l27,30l-6,-97c-11,-167 -65,-387 -134,-543c-12,-26 -21,-51 -21,-56c0,-14 104,-10 184,6c40,8 113,29 162,46c291,99 383,109 556,60c279,-78 584,-66 828,32c151,61 343,208 381,292c29,62 26,215 -5,275c-30,59 -90,104 -175,131l-70,23l-81,-22c-45,-12 -157,-49 -249,-81c-228,-80 -326,-104 -437,-105l-91,-1l-88,83c-151,144 -257,203 -397,225c-77,11 -83,14 -101,45c-32,54 -37,96 -47,352c-10,264 -5,310 34,335c12,8 54,19 92,24c38,6 95,15 127,20c109,21 172,32 232,42c33,6 61,12 64,14c6,6 -112,58 -205,90c-75,26 -226,56 -269,54c-11,-1 -45,-5 -75,-10z"/>
   <path fill="#f74581" id="svg_9" d="m835,8622c-301,-180 -575,-382 -732,-538l-91,-91l-7,-67c-15,-136 8,-228 112,-451c113,-241 105,-199 66,-360c-28,-118 -33,-155 -30,-235c2,-83 6,-102 32,-148c16,-29 44,-67 62,-83c33,-28 37,-29 136,-29c104,1 162,6 347,33c124,18 220,26 220,18c0,-4 -95,-53 -210,-110c-116,-57 -250,-130 -299,-161c-106,-69 -238,-191 -259,-240c-11,-26 -17,-99 -23,-280c-5,-171 -12,-262 -23,-300c-14,-49 -71,-352 -83,-440c-6,-48 51,-144 137,-230c63,-63 268,-236 393,-332c176,-135 386,-196 747,-217c460,-28 595,-47 755,-111l30,-12l-25,-13c-37,-19 -184,-68 -365,-121c-88,-25 -164,-50 -168,-54c-5,-4 20,-11 55,-15c69,-7 330,-58 393,-76l40,-12l-85,-29c-122,-41 -284,-68 -412,-68c-59,0 -108,-3 -108,-6c0,-19 130,-263 184,-343c177,-267 418,-466 683,-567c58,-23 85,-27 178,-27c158,-1 278,40 364,125c80,78 207,313 351,648c140,326 234,486 368,622c58,59 81,89 71,93c-8,2 -57,18 -109,34c-275,84 -461,180 -1008,521c-382,238 -362,220 -462,425c-64,130 -104,247 -175,510c-56,203 -105,357 -145,455c-22,54 -42,83 -79,116c-133,120 -227,299 -271,514c-25,127 -27,375 -5,525c17,111 14,168 -17,320c-37,185 -131,433 -236,625c-56,102 -153,260 -161,260c-3,0 -65,-35 -136,-78z"/>
   <path fill="#f74581" id="svg_10" d="m10320,8565c-101,-22 -204,-62 -334,-127c-65,-32 -117,-61 -115,-62c2,-2 87,-34 189,-71c211,-77 296,-120 356,-182c80,-82 94,-185 42,-308c-110,-258 -101,-226 -109,-390c-14,-296 -89,-529 -277,-868l-77,-138l-142,-79c-206,-116 -264,-137 -446,-160c-352,-45 -597,-111 -862,-232c-60,-27 -127,-57 -147,-66c-21,-10 -38,-19 -38,-22c0,-8 136,-28 283,-42c339,-32 776,61 1162,246c168,81 275,145 417,252c56,42 156,102 237,142c132,66 304,132 345,132c13,0 -9,-30 -75,-101c-272,-295 -370,-449 -419,-662c-53,-232 -127,-393 -228,-499c-85,-90 -142,-121 -302,-169c-169,-51 -414,-73 -650,-58c-176,11 -194,14 -725,145c-241,59 -411,84 -581,84c-209,0 -316,-20 -512,-97c-136,-53 -188,-78 -377,-183c-77,-43 -179,-97 -227,-121c-90,-45 -98,-53 -98,-117c0,-37 15,-70 73,-159l41,-63l111,0c107,0 155,5 495,50c132,18 195,21 315,17c185,-6 247,-23 427,-113c282,-141 408,-178 594,-172c112,3 125,5 156,28c239,179 378,212 988,239l215,10l69,38c37,21 153,102 256,180c203,152 286,204 395,249c60,24 89,29 210,35c77,4 166,14 197,23c188,51 365,180 571,414c81,91 134,138 257,230c285,213 351,304 385,527c39,257 -13,416 -253,780c-149,227 -155,233 -532,490c-95,66 -178,132 -241,195c-87,86 -102,107 -150,205c-60,124 -193,308 -286,398c-126,123 -203,154 -393,162c-90,3 -143,1 -190,-10z"/>
   <path fill="#f74581" id="svg_11" d="m7980,8530c0,-52 27,-104 79,-155c23,-21 41,-42 41,-46c0,-4 -21,-10 -47,-14c-112,-17 -180,-70 -169,-133c11,-73 87,-133 201,-161c51,-13 336,-18 355,-6c21,13 43,118 37,178c-6,63 -60,188 -94,219c-38,34 -340,158 -385,158c-14,0 -18,-8 -18,-40z"/>
   <path fill="#f74581" id="svg_12" d="m7890,7016c-244,-46 -493,-185 -740,-412c-180,-166 -345,-356 -598,-687c-117,-153 -325,-471 -315,-481c4,-3 52,-6 108,-6c173,0 286,50 497,218c186,149 269,231 523,517c368,414 494,526 797,703c165,96 191,112 186,117c-2,2 -50,13 -107,24c-115,23 -248,26 -351,7z"/>
   <path fill="#f74581" id="svg_13" d="m11030,5060c-109,-13 -236,-48 -305,-84c-79,-41 -150,-113 -277,-281c-113,-149 -157,-191 -240,-230c-62,-29 -167,-34 -222,-11c-120,50 -347,65 -498,32c-86,-19 -185,-54 -256,-91c-79,-41 -76,-33 -41,-126c106,-287 159,-554 159,-803c0,-122 -40,-388 -59,-400c-4,-3 -29,66 -55,152c-118,391 -242,632 -402,781c-89,83 -190,127 -269,118c-25,-2 -49,-7 -52,-11c-3,-3 12,-63 35,-133c79,-247 117,-439 128,-649c6,-129 -5,-276 -28,-359c-11,-40 -11,-39 -39,95c-123,607 -291,932 -609,1178c-175,136 -317,204 -497,238c-135,25 -380,16 -538,-20c-66,-16 -121,-29 -123,-30c-1,-2 24,-46 56,-99c67,-110 114,-223 147,-353c45,-176 50,-231 51,-629l1,-380l42,-115c46,-130 76,-262 92,-407c13,-118 13,-488 0,-672c-8,-109 -7,-140 5,-175c35,-97 92,-295 99,-340l7,-49l-30,34c-16,19 -124,160 -239,314c-221,295 -350,440 -483,546c-146,116 -219,151 -510,245c-512,166 -695,254 -869,419c-58,55 -110,125 -250,335c-177,266 -277,447 -320,580c-31,96 -51,197 -51,262c0,53 -2,59 -41,96c-58,55 -162,108 -256,132c-81,20 -292,40 -423,40c-98,0 -149,-29 -252,-142c-62,-68 -83,-100 -108,-164c-49,-121 -136,-287 -280,-529c-221,-370 -308,-563 -369,-815c-11,-47 -30,-118 -41,-159c-22,-81 -26,-203 -9,-248c17,-46 60,-84 134,-118c98,-46 149,-91 280,-246c124,-147 188,-203 278,-245c84,-38 149,-40 296,-10c68,14 142,26 165,26c55,0 102,-30 127,-82c47,-96 222,-183 409,-202c30,-4 134,-11 230,-16c266,-15 439,-64 790,-223c527,-239 561,-250 965,-308c767,-109 1188,-229 1560,-443c97,-56 123,-64 365,-112c47,-10 114,-16 151,-15c79,3 222,-26 344,-69c87,-31 364,-94 373,-85c13,13 31,144 32,232c1,288 -91,479 -528,1103c-131,186 -255,400 -233,400c5,0 86,-75 180,-166c238,-231 407,-430 670,-789c72,-99 144,-196 159,-214l28,-35l42,85c54,113 134,197 343,364c272,218 307,267 424,600c106,303 186,512 246,646c122,275 264,509 392,645c99,106 175,211 303,417c209,336 292,437 518,627c108,90 183,179 227,268c27,55 34,82 37,149l4,82l-47,83c-153,267 -338,430 -580,514c-118,40 -327,60 -465,44z"/>
  </g>
 </g>
</svg>